G04 ================== begin FILE IDENTIFICATION RECORD ==================*
G04 Layout Name:  C:/Users/user/Desktop/work/OSCILLATOR/allegro/OSCILLATOR1.brd*
G04 Film Name:    design*
G04 File Format:  Gerber RS274X*
G04 File Origin:  Cadence Allegro 17.2-P019*
G04 Origin Date:  Thu Aug 01 11:48:18 2019*
G04 *
G04 Layer:  BOARD GEOMETRY/DIMENSION*
G04 Layer:  VIA CLASS/BOTTOM*
G04 Layer:  VIA CLASS/TOP*
G04 Layer:  ROUTE KEEPOUT/ALL*
G04 Layer:  ROUTE KEEPIN/ALL*
G04 Layer:  REF DES/SILKSCREEN_TOP*
G04 Layer:  REF DES/SILKSCREEN_BOTTOM*
G04 Layer:  PIN/BOTTOM*
G04 Layer:  PIN/TOP*
G04 Layer:  PACKAGE KEEPOUT/ALL*
G04 Layer:  PACKAGE KEEPIN/ALL*
G04 Layer:  PACKAGE GEOMETRY/PIN_NUMBER*
G04 Layer:  PACKAGE GEOMETRY/SILKSCREEN_TOP*
G04 Layer:  PACKAGE GEOMETRY/SILKSCREEN_BOTTOM*
G04 Layer:  PACKAGE GEOMETRY/SOLDERMASK_TOP*
G04 Layer:  PACKAGE GEOMETRY/SOLDERMASK_BOTTOM*
G04 Layer:  PACKAGE GEOMETRY/PASTEMASK_TOP*
G04 Layer:  PACKAGE GEOMETRY/PASTEMASK_BOTTOM*
G04 Layer:  ETCH/BOTTOM*
G04 Layer:  ETCH/TOP*
G04 Layer:  BOARD GEOMETRY/OUTLINE*
G04 Layer:  BOARD GEOMETRY/SILKSCREEN_TOP*
G04 Layer:  BOARD GEOMETRY/SILKSCREEN_BOTTOM*
G04 Layer:  BOARD GEOMETRY/SOLDERMASK_TOP*
G04 Layer:  BOARD GEOMETRY/SOLDERMASK_BOTTOM*
G04 Layer:  BOARD GEOMETRY/DESIGN_OUTLINE*
G04 *
G04 Offset:    (0.000 0.000)*
G04 Mirror:    No*
G04 Mode:      Positive*
G04 Rotation:  0*
G04 FullContactRelief:  No*
G04 UndefLineWidth:     0.000*
G04 ================== end FILE IDENTIFICATION RECORD ====================*
%FSLAX25Y25*MOMM*%
%IR0*IPPOS*OFA0.00000B0.00000*MIA0B0*SFA1.00000B1.00000*%
%ADD12C,1.524*%
%ADD13C,1.651*%
%ADD16C,1.905*%
%ADD14R,1.524X1.524*%
%ADD15R,1.905X1.905*%
%ADD11C,.61*%
%ADD10C,.635*%
%ADD17C,1.*%
%ADD18C,.203*%
%ADD19C,.5*%
%ADD20C,2.036*%
%ADD21C,2.164*%
%ADD28C,2.418*%
%ADD27R,1.012X1.012*%
%ADD26R,1.512X1.012*%
%ADD24R,1.012X1.512*%
%ADD25R,1.512X1.512*%
%ADD22R,1.012X3.167*%
%ADD23R,1.012X7.732*%
G75*
%LPD*%
G75*
G36*
G01X754200Y500000D02*
Y754200D01*
X500000D01*
Y3390200D01*
G03X601800Y3492000I0J101800D01*
G03X588300Y3542600I-101785J-55D01*
G03X500000Y3593800I-88300J-50542D01*
G01Y3644200D01*
G03Y3847800I0J101800D01*
G01Y3898200D01*
G03X601800Y4000000I0J101800D01*
G03X588300Y4050600I-101785J-55D01*
G03X500000Y4101800I-88300J-50542D01*
G01Y6245800D01*
X754200D01*
Y6500000D01*
X9245800D01*
Y6245800D01*
X9500000D01*
Y3855800D01*
G03Y3652200I0J-101800D01*
G01Y3601800D01*
G03X9407800Y3543100I0J-101759D01*
G03X9500000Y3398200I92200J-43117D01*
G01Y754200D01*
X9245800D01*
Y500000D01*
X754200D01*
G37*
%LPC*%
G75*
G36*
G01X3842100Y5981900D02*
G02Y6083100I-95600J50600D01*
G02Y5981900I-95600J-50600D01*
G37*
G36*
G01X3074400Y6076600D02*
G02Y5975400I95600J-50600D01*
G02Y6076600I95600J50600D01*
G37*
G36*
G01X7144100Y5918400D02*
G02Y6019600I-95600J50600D01*
G02Y5918400I-95600J-50600D01*
G37*
G36*
G01X6127400Y6019600D02*
G02Y5918400I95600J-50600D01*
G02Y6019600I95600J50600D01*
G37*
G36*
G01X5556600Y5918400D02*
G02Y6019600I-95600J50600D01*
G02Y5918400I-95600J-50600D01*
G37*
G36*
G01X4559100Y5690200D02*
G02X4457900I-50600J88300D01*
G02X4559100I50600J88300D01*
G37*
G36*
G01X3797100Y4920800D02*
G02X3654600Y4959400I-50567J95656D01*
G01X3654500D01*
G02X3650900Y5067100I91982J56985D01*
G02X3754900Y5124300I95587J-50648D01*
G02X3842100Y5067100I-8397J-107868D01*
G02Y4965900I-95602J-50600D01*
G02X3797100Y4920900I-95600J50600D01*
G01Y4920800D01*
G37*
G36*
G01X1874600Y4921700D02*
G02X1902000Y5075300I-50617J88273D01*
G02X1874600Y4921700I-78050J-65321D01*
G37*
G36*
G01X3265600Y4959400D02*
G02Y5060600I-95600J50600D01*
G02Y4959400I-95600J-50600D01*
G37*
G36*
G01X2474400Y5060600D02*
G02Y4959400I95600J-50600D01*
G02Y5060600I95600J50600D01*
G37*
G36*
G01X6318600Y5003600D02*
G02X6127400I-95600J-50600D01*
G02X6318600I95600J-50600D01*
G37*
G36*
G01X5556600D02*
G02X5407800Y5047200I-95616J-50608D01*
G02X5556600Y5003600I53183J-94211D01*
G37*
G36*
G01X3606600Y4694200D02*
X3505400D01*
Y4845400D01*
X3797100D01*
Y4832900D01*
X3634600D01*
X3606600Y4804900D01*
Y4694200D01*
G37*
G36*
G01X6845100Y4686900D02*
X6743900D01*
Y4729500D01*
X6823500Y4809100D01*
X6977500D01*
X6997900Y4829500D01*
Y4857400D01*
G02X6952900Y5003600I50600J95600D01*
G02X7144100I95600J-50600D01*
G02X7099100Y4857400I-95600J-50600D01*
G02X7099000Y4857300I-76543J76443D01*
G03X7099100Y4839200I4767J-9024D01*
G01Y4787500D01*
X7019500Y4707900D01*
X6865500D01*
X6845100Y4687500D01*
Y4686900D01*
G37*
G36*
G01X7116200Y4458200D02*
X6963800D01*
G02X6938200Y4483800I0J25600D01*
G01Y4636200D01*
G02X6963800Y4661800I25600J0D01*
G01X7116200D01*
G02X7141800Y4636200I0J-25600D01*
G01Y4483800D01*
G02X7116200Y4458200I-25600J0D01*
G37*
G36*
G01X5546200D02*
X5393800D01*
G02X5368200Y4483800I0J25600D01*
G01Y4636200D01*
G02X5393800Y4661800I25600J0D01*
G01X5546200D01*
G02X5571800Y4636200I0J-25600D01*
G01Y4483800D01*
G02X5546200Y4458200I-25600J0D01*
G37*
G36*
G01X3846200D02*
X3693800D01*
G02X3668200Y4483800I0J25600D01*
G01Y4636200D01*
G02X3693800Y4661800I25600J0D01*
G01X3846200D01*
G02X3871800Y4636200I0J-25600D01*
G01Y4483800D01*
G02X3846200Y4458200I-25600J0D01*
G37*
G36*
G01X1896200D02*
X1743800D01*
G02X1718200Y4483800I0J25600D01*
G01Y4636200D01*
G02X1743800Y4661800I25600J0D01*
G01X1896200D01*
G02X1921800Y4636200I0J-25600D01*
G01Y4483800D01*
G02X1896200Y4458200I-25600J0D01*
G37*
G36*
G01X7480100Y4782300D02*
Y4312000D01*
X7417400Y4374700D01*
Y4631200D01*
X7378900Y4669700D01*
Y4838100D01*
X7424300D01*
X7480100Y4782300D01*
G37*
G36*
G01X4718300Y4230400D02*
X4648400D01*
Y4381600D01*
X4655700D01*
X4686900Y4412800D01*
Y4693800D01*
X4749600Y4756500D01*
Y4261700D01*
X4718300Y4230400D01*
G37*
G36*
G01X2813300D02*
X2743400D01*
Y4381600D01*
X2750700D01*
X2781900Y4412800D01*
Y4730300D01*
X2844600Y4793000D01*
Y4261700D01*
X2813300Y4230400D01*
G37*
G36*
G01X5381700Y4356600D02*
G02Y4255400I88300J-50600D01*
G02Y4356600I88300J50600D01*
G37*
G36*
G01X1896800Y4239200D02*
G02X1802300Y4205800I-76767J66813D01*
G02X1726600Y4265500I17663J100240D01*
G02X1908300Y4356600I93385J40494D01*
G02X1897100Y4239600I-88314J-50582D01*
G03X1896800Y4239200I7981J-6299D01*
G37*
G36*
G01X3790200Y4206200D02*
G02X3676600Y4265600I-20156J99780D01*
G02X3858300Y4356600I93457J40295D01*
G02X3857400Y4253700I-88296J-50682D01*
G01X3856900Y4253000D01*
G02X3790200Y4206200I-86930J52963D01*
G37*
G36*
G01X6300200Y4230400D02*
G02Y4381600I-68200J75600D01*
G01X6437500D01*
X6498500Y4320600D01*
X6408300Y4230400D01*
X6300200D01*
G37*
G36*
G01X3871700Y4057100D02*
G02X3681700Y4001400I-101675J-5082D01*
G02X3871700Y4057100I88328J50609D01*
G37*
G36*
G01X1921700D02*
G02X1731700Y4001400I-101675J-5082D01*
G02X1921700Y4057100I88328J50609D01*
G37*
G36*
G01X4620300Y4001400D02*
G02X4438600Y4092400I-88243J50705D01*
G02X4552200Y4151800I93444J-40380D01*
G02X4618900Y4105000I-20230J-99763D01*
G01X4619400Y4104300D01*
G02X4620300Y4001400I-87396J-52218D01*
G37*
G36*
G01X6951700Y4102600D02*
G02Y4001400I88300J-50600D01*
G02Y4102600I88300J50600D01*
G37*
G36*
G01X6143700D02*
G02Y4001400I88300J-50600D01*
G02Y4102600I88300J50600D01*
G37*
G36*
G01X5558300Y4001400D02*
G02Y4102600I-88300J50600D01*
G02Y4001400I-88300J-50600D01*
G37*
G36*
G01X2670300D02*
G02X2495100Y3999000I-88310J50614D01*
G01X2494600Y3999700D01*
G02X2493700Y4102600I87396J52218D01*
G02X2670300I88300J-50600D01*
G02Y4001400I-88300J-50600D01*
G37*
G36*
G01X5321100Y3717200D02*
X5219900Y3616000D01*
Y3829800D01*
X5263700Y3873600D01*
X5321100D01*
Y3717200D01*
G37*
G36*
G01X4051100Y3817800D02*
Y3604000D01*
X3949900Y3705200D01*
Y3873600D01*
X3995300D01*
X4051100Y3817800D01*
G37*
G36*
G01X2082600D02*
Y3604000D01*
X1981400Y3705200D01*
Y3873600D01*
X2026800D01*
X2082600Y3817800D01*
G37*
G36*
G01X3483800Y3543900D02*
X3420400D01*
Y3695100D01*
X3421200D01*
X3599700Y3873600D01*
X3701800D01*
G02Y3722400I68200J-75600D01*
G01X3627300D01*
X3571600Y3666700D01*
Y3631700D01*
X3483800Y3543900D01*
G37*
G36*
G01X2589900Y3315100D02*
G02X2664900Y3390100I-23900J98900D01*
G01X2664600Y3388800D01*
G02X2590400Y3315200I-98615J25216D01*
G01X2589900Y3315100D01*
G37*
G36*
G01X7158200Y3421500D02*
G02X6955900Y3366500I-108208J-1541D01*
G01Y3366600D01*
G02X6954400Y3470600I94108J53368D01*
G02X7158200Y3421500I95608J-50665D01*
G37*
G36*
G01X5565600Y3365400D02*
G02Y3466600I-95600J50600D01*
G02Y3365400I-95597J-50600D01*
G37*
G36*
G01X2796100Y3258900D02*
G02X2721100Y3183900I23900J-98900D01*
G01X2721400Y3185400D01*
G02X2794600Y3258600I98600J-25400D01*
G01X2796100Y3258900D01*
G37*
G36*
G01X2348700Y3065000D02*
G02X2226100Y3105400I-36662J94968D01*
G02X2223700Y3210600I85909J54587D01*
G02X2390400Y3095000I88281J-50690D01*
G02X2348700Y3065000I-78394J64986D01*
G37*
G36*
G01X3833400Y2322300D02*
G02X3706600I-63400J87644D01*
G03X3705700Y2323000I-6712J-7701D01*
G02X3662900Y2425000I64321J86969D01*
G02X3858200Y2472600I107127J-15082D01*
G03X3858600Y2472000I8704J5370D01*
G02X3834300Y2323000I-88615J-62030D01*
G03X3833400Y2322300I5812J-8401D01*
G37*
G36*
G01X5565600Y2349400D02*
G02Y2450600I-95600J50600D01*
G02Y2349400I-95600J-50600D01*
G37*
G36*
G01X4884300Y1762400D02*
G02Y1913600I-94300J75600D01*
G02Y1762400I-94300J-75600D01*
G37*
G36*
G01X4909700Y1567000D02*
G02X4680200Y1533400I-119705J17042D01*
G02X4682200Y1638700I109803J50583D01*
G01X4682300Y1638900D01*
G02X4909700Y1567000I107703J-54915D01*
G37*
G36*
G01X3889700Y1601000D02*
G02X3662300Y1529100I-119697J-16985D01*
G01X3662200Y1529300D01*
G02X3660200Y1634600I107803J54717D01*
G02X3889700Y1601000I109795J-50642D01*
G37*
G36*
G01X4694800Y1209200D02*
G02X4669200Y1234800I-50J25550D01*
G01Y1425200D01*
G02X4694800Y1450800I25550J50D01*
G01X4885200D01*
G02X4910800Y1425300I50J-25550D01*
G01Y1234700D01*
G02X4885200Y1209200I-25550J50D01*
G01X4694800D01*
G37*
G36*
G01X3674800D02*
G02X3649200Y1234800I-50J25550D01*
G01Y1425200D01*
G02X3674800Y1450800I25550J50D01*
G01X3865200D01*
G02X3890800Y1425200I50J-25550D01*
G01Y1234800D01*
G02X3865200Y1209200I-25550J-50D01*
G01X3674800D01*
G37*
G54D20*
X4508500Y6032500D03*
X1570000Y5010000D03*
X7802000Y4560000D03*
X6232000D03*
X4532000D03*
X2582000D03*
X7802000Y4306000D03*
X7040000D03*
X4532000D03*
X2582000D03*
X7802000Y4052000D03*
Y3798000D03*
X7040000D03*
X6232000D03*
X5470000D03*
X4532000D03*
X2582000D03*
X1820000D03*
X2460000Y2254000D03*
Y2000000D03*
X6180000Y1834000D03*
X2460000Y1580000D03*
X6180000D03*
X2460000Y1326000D03*
X6180000Y1240000D03*
Y986000D03*
G54D21*
X2570000Y6026000D03*
X3770000Y3426000D03*
X1810000Y3156000D03*
X7050000Y2404000D03*
X1810000Y2140000D03*
G54D28*
X3770000Y1838000D03*
G54D27*
X6032500Y3416000D03*
G54D26*
X6477000D03*
X3496000Y2254000D03*
G54D24*
X2413000Y3619500D03*
X6032500Y3556000D03*
G54D25*
X6477000D03*
G54D22*
X5651500Y4845250D03*
G54D23*
X6032500Y4617000D03*
%LPD*%
G75*
G36*
G01X246000Y246000D02*
Y754000D01*
X754000D01*
Y246000D01*
X246000D01*
G37*
G36*
G01Y6246000D02*
Y6754000D01*
X754000D01*
Y6246000D01*
X246000D01*
G37*
G36*
G01X9246000Y246000D02*
Y754000D01*
X9754000D01*
Y246000D01*
X9246000D01*
G37*
G36*
G01Y6246000D02*
Y6754000D01*
X9754000D01*
Y6246000D01*
X9246000D01*
G37*
G54D10*
X500000Y500000D03*
D03*
Y6500000D03*
D03*
X9500000Y500000D03*
D03*
Y6500000D03*
D03*
G54D11*
X1083200Y1206200D03*
D03*
Y1714200D03*
D03*
Y2222200D03*
D03*
Y2730200D03*
D03*
Y3238200D03*
D03*
Y3746200D03*
D03*
Y4254200D03*
D03*
Y4762200D03*
D03*
Y5270200D03*
D03*
Y5778200D03*
D03*
X1591200Y1206200D03*
D03*
Y1714200D03*
D03*
Y2222200D03*
D03*
Y2730200D03*
D03*
Y3238200D03*
D03*
Y3746200D03*
D03*
Y5270200D03*
D03*
Y5778200D03*
D03*
X2099200Y1206200D03*
D03*
X2607200D03*
D03*
X2099200Y1714200D03*
D03*
X2607200D03*
D03*
X2099200Y2222200D03*
D03*
Y2730200D03*
D03*
X2607200D03*
D03*
X2099200Y3238200D03*
D03*
X2607200D03*
D03*
X2099200Y4254200D03*
D03*
Y4762200D03*
D03*
X2607200D03*
D03*
X2099200Y5270200D03*
D03*
X2607200D03*
D03*
X2099200Y5778200D03*
D03*
X3115200Y1206200D03*
D03*
Y1714200D03*
D03*
Y2730200D03*
D03*
Y3238200D03*
D03*
Y3746200D03*
D03*
Y4254200D03*
D03*
Y5270200D03*
D03*
Y5778200D03*
D03*
X3623200Y1206200D03*
D03*
Y1714200D03*
D03*
Y2730200D03*
D03*
X4131200D03*
D03*
X3623200Y3238200D03*
D03*
X4131200D03*
D03*
Y4254200D03*
D03*
X3623200Y5270200D03*
D03*
X4131200D03*
D03*
X3623200Y5778200D03*
D03*
X4131200D03*
D03*
X4639200Y1206200D03*
D03*
Y1714200D03*
D03*
Y2222200D03*
D03*
Y2730200D03*
D03*
Y3238200D03*
D03*
X5147200Y1206200D03*
D03*
X5655200D03*
D03*
X5147200Y1714200D03*
D03*
X5655200D03*
D03*
X5147200Y2222200D03*
D03*
X5655200D03*
D03*
X5147200Y2730200D03*
D03*
X5655200D03*
D03*
X5147200Y3238200D03*
D03*
X5655200D03*
D03*
X5147200Y4254200D03*
D03*
Y5270200D03*
D03*
Y5778200D03*
D03*
X6163200Y2222200D03*
D03*
Y2730200D03*
D03*
Y3238200D03*
D03*
Y4762200D03*
D03*
Y5270200D03*
D03*
Y5778200D03*
D03*
X6671200Y1206200D03*
D03*
X7179200D03*
D03*
X6671200Y1714200D03*
D03*
X7179200D03*
D03*
X6671200Y2222200D03*
D03*
X7179200D03*
D03*
X6671200Y2730200D03*
D03*
X7179200D03*
D03*
X6671200Y3238200D03*
D03*
X7179200D03*
D03*
X6671200Y3746200D03*
D03*
X7179200D03*
D03*
X6671200Y4254200D03*
D03*
X7179200D03*
D03*
X6671200Y5270200D03*
D03*
X7179200D03*
D03*
X6671200Y5778200D03*
D03*
X7179200D03*
D03*
X7687200Y1206200D03*
D03*
Y1714200D03*
D03*
Y2222200D03*
D03*
Y2730200D03*
D03*
Y3238200D03*
D03*
Y4762200D03*
D03*
Y5270200D03*
D03*
Y5778200D03*
D03*
X8195200Y1206200D03*
D03*
X8703200D03*
D03*
X8195200Y1714200D03*
D03*
X8703200D03*
D03*
X8195200Y2222200D03*
D03*
X8703200D03*
D03*
X8195200Y2730200D03*
D03*
X8703200D03*
D03*
X8195200Y3238200D03*
D03*
X8703200D03*
D03*
X8195200Y3746200D03*
D03*
X8703200D03*
D03*
X8195200Y4254200D03*
D03*
X8703200D03*
D03*
X8195200Y4762200D03*
D03*
X8703200D03*
D03*
X8195200Y5270200D03*
D03*
X8703200D03*
D03*
X8195200Y5778200D03*
D03*
X8703200D03*
D03*
G54D12*
X500000Y3492000D03*
D03*
Y3746000D03*
D03*
Y4000000D03*
D03*
X1820000Y3798000D03*
D03*
Y4052000D03*
D03*
Y4306000D03*
D03*
X1824000Y5010000D03*
D03*
X1570000D03*
D03*
X2460000Y1326000D03*
D03*
Y1580000D03*
D03*
Y2254000D03*
D03*
Y2000000D03*
D03*
X2312000Y3160000D03*
D03*
X2566000Y3414000D03*
D03*
X2582000Y3798000D03*
D03*
Y4052000D03*
D03*
Y4306000D03*
D03*
Y4560000D03*
D03*
X2820000Y3160000D03*
D03*
X3770000Y3798000D03*
D03*
Y4052000D03*
D03*
Y4306000D03*
D03*
X4532000Y3798000D03*
D03*
Y4052000D03*
D03*
Y4306000D03*
D03*
Y4560000D03*
D03*
X4508500Y5778500D03*
D03*
Y6032500D03*
D03*
X5470000Y3798000D03*
D03*
Y4052000D03*
D03*
Y4306000D03*
D03*
X6180000Y986000D03*
D03*
Y1834000D03*
D03*
Y1580000D03*
D03*
Y1240000D03*
D03*
X6232000Y3798000D03*
D03*
Y4052000D03*
D03*
Y4306000D03*
D03*
Y4560000D03*
D03*
X7040000Y3798000D03*
D03*
Y4052000D03*
D03*
Y4306000D03*
D03*
X7802000Y3798000D03*
D03*
Y4052000D03*
D03*
Y4306000D03*
D03*
Y4560000D03*
D03*
X9500000Y3754000D03*
D03*
Y3500000D03*
D03*
G54D13*
X1810000Y2140000D03*
D03*
Y3156000D03*
D03*
X2570000Y5010000D03*
D03*
Y6026000D03*
D03*
X3170000Y5010000D03*
D03*
Y6026000D03*
D03*
X3770000Y2410000D03*
D03*
Y3426000D03*
D03*
X3746500Y5016500D03*
D03*
Y6032500D03*
D03*
X5470000Y2400000D03*
D03*
Y3416000D03*
D03*
X5461000Y4953000D03*
D03*
Y5969000D03*
D03*
X6223000Y4953000D03*
D03*
Y5969000D03*
D03*
X7050000Y2404000D03*
D03*
Y3420000D03*
D03*
X7048500Y4953000D03*
D03*
Y5969000D03*
D03*
G54D14*
X1820000Y4560000D03*
D03*
X3770000D03*
D03*
X5470000D03*
D03*
X7040000D03*
D03*
G54D15*
X3770000Y1330000D03*
D03*
X4790000D03*
D03*
G54D16*
X3770000Y1584000D03*
D03*
Y1838000D03*
D03*
X4790000Y1584000D03*
D03*
Y1838000D03*
D03*
G54D17*
G01X635000Y3746500D02*
X571500D01*
X571000Y3746000D01*
X500000D01*
G01X1810000Y2026700D02*
Y2140000D01*
G01D02*
Y2253300D01*
G01X1696700Y2140000D02*
X1810000D01*
G01D02*
X1923300D01*
G01X1810000Y2026700D02*
Y2140000D01*
G01D02*
Y2253300D01*
G01X1696700Y2140000D02*
X1810000D01*
G01D02*
X1923300D01*
G01X3770000Y3798000D02*
X3631000D01*
X3452500Y3619500D01*
X2174000D01*
X1995500Y3798000D01*
X1820000D01*
G01X1570000Y4903100D02*
Y5010000D01*
G01Y4903100D02*
Y5010000D01*
G01D02*
Y5116900D01*
G01X1463100Y5010000D02*
X1570000D01*
G01D02*
Y5116900D01*
G01X1463100Y5010000D02*
X1570000D01*
G01X2460000Y1893100D02*
Y2000000D01*
G01Y1219100D02*
Y1326000D01*
G01X2353100D02*
X2460000D01*
G01D02*
X2566900D01*
G01X2460000Y1893100D02*
Y2000000D01*
G01Y1219100D02*
Y1326000D01*
G01X2353100D02*
X2460000D01*
G01D02*
X2566900D01*
G01X2353100Y2000000D02*
X2460000D01*
G01D02*
X2566900D01*
G01X2353100D02*
X2460000D01*
G01D02*
X2566900D01*
G01X4532000Y4306000D02*
X4393000D01*
X4318000Y4381000D01*
Y4699000D01*
X4247200Y4769800D01*
X2928300D01*
X2857500Y4699000D01*
Y4381500D01*
X2782000Y4306000D01*
X2582000D01*
G01X3770000Y1838000D02*
X3932200D01*
X4032200Y1738000D01*
Y1199500D01*
X4132200Y1099500D01*
X5862000D01*
X6002500Y1240000D01*
X6180000D01*
G01X3770000Y1204000D02*
Y1330000D01*
G01X3644000D02*
X3770000D01*
G01D02*
X3896000D01*
G01X3770000Y1204000D02*
Y1330000D01*
G01X3644000D02*
X3770000D01*
G01D02*
X3896000D01*
G01X3770000Y1838000D02*
X3596000D01*
X3496000Y1938000D01*
Y3698000D01*
X3596000Y3798000D01*
X3770000D01*
G01Y3312700D02*
Y3426000D01*
G01D02*
Y3539300D01*
G01X3656700Y3426000D02*
X3770000D01*
G01D02*
X3883300D01*
G01X3770000Y3312700D02*
Y3426000D01*
G01D02*
Y3539300D01*
G01X3656700Y3426000D02*
X3770000D01*
G01D02*
X3883300D01*
G01X5470000Y3798000D02*
X5295000D01*
X5116500Y3619500D01*
X4142500D01*
X3964000Y3798000D01*
X3770000D01*
G01X4664000Y1330000D02*
X4790000D01*
G01D02*
X4916000D01*
G01X4790000Y1204000D02*
Y1330000D01*
G01X4664000D02*
X4790000D01*
G01D02*
X4916000D01*
G01X4790000Y1838000D02*
X6037000D01*
X6041000Y1834000D01*
X6180000D01*
G01X6232000Y4306000D02*
X6005500D01*
X5905500Y4406000D01*
Y4662500D01*
X5805500Y4762500D01*
X4862500D01*
X4762500Y4662500D01*
Y4381500D01*
X4687000Y4306000D01*
X4532000D01*
G01X5470000Y3798000D02*
X5609000D01*
X5851000Y3556000D01*
X6658400D01*
X6900400Y3798000D01*
X7040000D01*
G01X6180000Y879100D02*
Y986000D01*
G01X6073100D02*
X6180000D01*
G01D02*
X6286900D01*
G01X6180000Y879100D02*
Y986000D01*
G01X6073100D02*
X6180000D01*
G01D02*
X6286900D01*
G01X6180000Y1473100D02*
Y1580000D01*
G01X6073100D02*
X6180000D01*
G01D02*
X6286900D01*
G01X6180000Y1473100D02*
Y1580000D01*
G01X6073100D02*
X6180000D01*
G01D02*
X6286900D01*
G01X6180000Y1834000D02*
X6406000D01*
X6477000Y1905000D01*
Y4235200D01*
X6406200Y4306000D01*
X6232000D01*
G01D02*
X6377000D01*
X6477000Y4406000D01*
Y4662500D01*
X6577000Y4762500D01*
X7393000D01*
X7493000Y4662500D01*
Y4406000D01*
X7593000Y4306000D01*
X7802000D01*
G01X7050000Y2290700D02*
Y2404000D01*
G01D02*
Y2517300D01*
G01X6936700Y2404000D02*
X7050000D01*
G01D02*
X7163300D01*
G01X7050000Y2290700D02*
Y2404000D01*
G01D02*
Y2517300D01*
G01X6936700Y2404000D02*
X7050000D01*
G01D02*
X7163300D01*
G01X7040000Y4306000D02*
X7163500D01*
G01X7040000D02*
X6933500D01*
G01X6933100D02*
X7040000D01*
G01D02*
X7146900D01*
G01X9500000Y3754000D02*
Y3860900D01*
G01X9393100Y3754000D02*
X9500000D01*
G01D02*
Y3860900D01*
G01X9393100Y3754000D02*
X9500000D01*
G54D18*
G01X3477900Y1050600D02*
X4049400D01*
G01D02*
Y2117400D01*
G01X3477900D02*
Y1050600D01*
G01X3617600D02*
Y2117400D01*
G01X4049400D02*
X3477900D01*
G01X4497900Y1050600D02*
X5069400D01*
G01X4497900Y2117400D02*
Y1050600D01*
G01X4637600D02*
Y2117400D01*
G01X5069400D02*
X4497900D01*
G01X5069400Y1050600D02*
Y2117400D01*
G54D19*
G01X2460000Y2254000D02*
Y2490000D01*
X2410000Y2540000D01*
X1397000D01*
X1333500Y2603500D01*
Y3937000D01*
X1270500Y4000000D01*
X500000D01*
G01X2460000Y1580000D02*
X1264000D01*
X1206500Y1637500D01*
Y3442000D01*
X1156500Y3492000D01*
X500000D01*
G01X2066700Y200000D02*
X1813300D01*
Y700000D01*
X2066700D01*
G01X1965300Y458300D02*
X1813300D01*
G01X2293300Y700000D02*
Y200000D01*
X2546700D01*
G01X3026700D02*
X2773300D01*
Y700000D01*
X3026700D01*
G01X2925300Y458300D02*
X2773300D01*
G01X3519300Y658300D02*
X3481300Y683300D01*
X3437000Y700000D01*
X3386300D01*
X3329300Y675000D01*
X3285000Y633300D01*
X3253300Y583300D01*
X3228000Y500000D01*
X3221700Y425000D01*
X3234300Y350000D01*
X3253300Y300000D01*
X3291300Y250000D01*
X3335700Y216700D01*
X3380000Y200000D01*
X3424300D01*
X3468700Y216700D01*
X3506700Y241700D01*
X3538300Y275000D01*
G01X3860000Y700000D02*
Y200000D01*
G01X3714300Y700000D02*
X4005700D01*
G01X4213300Y200000D02*
Y700000D01*
X4371700D01*
X4422300Y675000D01*
X4454000Y641700D01*
X4466700Y575000D01*
X4454000Y508300D01*
X4416000Y466700D01*
X4371700Y441700D01*
X4213300D01*
G01X4371700D02*
X4466700Y200000D01*
G01X4820000D02*
X4769300Y208300D01*
X4725000Y241700D01*
X4687000Y291700D01*
X4661700Y350000D01*
X4649000Y416700D01*
Y483300D01*
X4661700Y550000D01*
X4687000Y608300D01*
X4725000Y658300D01*
X4769300Y691700D01*
X4820000Y700000D01*
X4870700Y691700D01*
X4915000Y658300D01*
X4953000Y608300D01*
X4978300Y550000D01*
X4991000Y483300D01*
Y416700D01*
X4978300Y350000D01*
X4953000Y291700D01*
X4915000Y241700D01*
X4870700Y208300D01*
X4820000Y200000D01*
G01X5154300D02*
Y700000D01*
X5445700Y200000D01*
Y700000D01*
G01X5704000D02*
X5856000D01*
G01X5780000D02*
Y200000D01*
G01X5704000D02*
X5856000D01*
G01X6399300Y658300D02*
X6361300Y683300D01*
X6317000Y700000D01*
X6266300D01*
X6209300Y675000D01*
X6165000Y633300D01*
X6133300Y583300D01*
X6108000Y500000D01*
X6101700Y425000D01*
X6114300Y350000D01*
X6133300Y300000D01*
X6171300Y250000D01*
X6215700Y216700D01*
X6260000Y200000D01*
X6304300D01*
X6348700Y216700D01*
X6386700Y241700D01*
X6418300Y275000D01*
G01X7359300Y658300D02*
X7321300Y683300D01*
X7277000Y700000D01*
X7226300D01*
X7169300Y675000D01*
X7125000Y633300D01*
X7093300Y583300D01*
X7068000Y500000D01*
X7061700Y425000D01*
X7074300Y350000D01*
X7093300Y300000D01*
X7131300Y250000D01*
X7175700Y216700D01*
X7220000Y200000D01*
X7264300D01*
X7308700Y216700D01*
X7346700Y241700D01*
X7378300Y275000D01*
G01X7541700Y200000D02*
X7700000Y700000D01*
X7858300Y200000D01*
G01X7801300Y375000D02*
X7598700D01*
G01X8040700Y200000D02*
Y700000D01*
X8167300D01*
X8218000Y675000D01*
X8256000Y641700D01*
X8287700Y591700D01*
X8313000Y533300D01*
X8319300Y450000D01*
X8313000Y366700D01*
X8287700Y308300D01*
X8256000Y258300D01*
X8218000Y225000D01*
X8167300Y200000D01*
X8040700D01*
G01X1810000Y3156000D02*
X2198000D01*
Y3160000D01*
X2312000D01*
G01X1810000Y3156000D02*
Y3334000D01*
X2032000Y3556000D01*
Y4191000D01*
X1917000Y4306000D01*
X1820000D01*
G01X1824000Y5010000D02*
Y4896000D01*
X1651000Y4723000D01*
Y4107000D01*
X1706000Y4052000D01*
X1820000D01*
G01X1824000Y5010000D02*
X2570000D01*
G01X2460000Y1580000D02*
X3633000D01*
X3637000Y1584000D01*
X3770000D01*
G01X4790000D02*
X4657000D01*
X4653500Y1587500D01*
X4381500D01*
X4318000Y1651000D01*
Y2159000D01*
X4223000Y2254000D01*
X2460000D01*
G01X2820000Y3160000D02*
X2566000Y3414000D01*
G01D02*
X2452000D01*
X2413000Y3453000D01*
Y4000500D01*
X2464500Y4052000D01*
X2582000D01*
G01D02*
X2732000D01*
X2794000Y4114000D01*
Y5651500D01*
X2570000Y5875500D01*
Y6026000D01*
G01X2740000Y6300000D02*
X2689300Y6308300D01*
X2645000Y6341700D01*
X2607000Y6391700D01*
X2581700Y6450000D01*
X2569000Y6516700D01*
Y6583300D01*
X2581700Y6650000D01*
X2607000Y6708300D01*
X2645000Y6758300D01*
X2689300Y6791700D01*
X2740000Y6800000D01*
X2790700Y6791700D01*
X2835000Y6758300D01*
X2873000Y6708300D01*
X2898300Y6650000D01*
X2911000Y6583300D01*
Y6516700D01*
X2898300Y6450000D01*
X2873000Y6391700D01*
X2835000Y6341700D01*
X2790700Y6308300D01*
X2740000Y6300000D01*
G01X3087000Y6366700D02*
X3137700Y6325000D01*
X3194700Y6300000D01*
X3245300D01*
X3296000Y6325000D01*
X3334000Y6366700D01*
X3353000Y6425000D01*
X3340300Y6483300D01*
X3308700Y6533300D01*
X3251700Y6566700D01*
X3175700Y6583300D01*
X3131300Y6616700D01*
X3112300Y6675000D01*
X3125000Y6733300D01*
X3156700Y6775000D01*
X3201000Y6800000D01*
X3245300D01*
X3289700Y6783300D01*
X3327700Y6741700D01*
G01X3839300Y6758300D02*
X3801300Y6783300D01*
X3757000Y6800000D01*
X3706300D01*
X3649300Y6775000D01*
X3605000Y6733300D01*
X3573300Y6683300D01*
X3548000Y6600000D01*
X3541700Y6525000D01*
X3554300Y6450000D01*
X3573300Y6400000D01*
X3611300Y6350000D01*
X3655700Y6316700D01*
X3700000Y6300000D01*
X3744300D01*
X3788700Y6316700D01*
X3826700Y6341700D01*
X3858300Y6375000D01*
G01X4104000Y6800000D02*
X4256000D01*
G01X4180000D02*
Y6300000D01*
G01X4104000D02*
X4256000D01*
G01X4533300Y6800000D02*
Y6300000D01*
X4786700D01*
G01X5013300Y6800000D02*
Y6300000D01*
X5266700D01*
G01X5461700D02*
X5620000Y6800000D01*
X5778300Y6300000D01*
G01X5721300Y6475000D02*
X5518700D01*
G01X6100000Y6800000D02*
Y6300000D01*
G01X5954300Y6800000D02*
X6245700D01*
G01X6580000Y6300000D02*
X6529300Y6308300D01*
X6485000Y6341700D01*
X6447000Y6391700D01*
X6421700Y6450000D01*
X6409000Y6516700D01*
Y6583300D01*
X6421700Y6650000D01*
X6447000Y6708300D01*
X6485000Y6758300D01*
X6529300Y6791700D01*
X6580000Y6800000D01*
X6630700Y6791700D01*
X6675000Y6758300D01*
X6713000Y6708300D01*
X6738300Y6650000D01*
X6751000Y6583300D01*
Y6516700D01*
X6738300Y6450000D01*
X6713000Y6391700D01*
X6675000Y6341700D01*
X6630700Y6308300D01*
X6580000Y6300000D01*
G01X6933300D02*
Y6800000D01*
X7091700D01*
X7142300Y6775000D01*
X7174000Y6741700D01*
X7186700Y6675000D01*
X7174000Y6608300D01*
X7136000Y6566700D01*
X7091700Y6541700D01*
X6933300D01*
G01X7091700D02*
X7186700Y6300000D01*
G01X2570000Y6026000D02*
X3170000D01*
G01Y5010000D02*
X3626100D01*
Y5016500D01*
X3746500D01*
G01X3770000Y2410000D02*
X3773000Y2413000D01*
X3887000D01*
X4000500Y2526500D01*
Y4191000D01*
X3885500Y4306000D01*
X3770000D01*
G01Y4052000D02*
X3656000D01*
X3556000Y4152000D01*
Y4825900D01*
X3613600Y4883500D01*
X3746500D01*
Y5016500D01*
G01D02*
X4458500D01*
X4508500Y5066500D01*
Y5778500D01*
G01Y6032500D02*
X3746500D01*
G01X4508500D02*
X4649000D01*
X4699000Y5982500D01*
Y4102000D01*
X4649000Y4052000D01*
X4532000D01*
G01X6032500D02*
Y2450000D01*
X5982500Y2400000D01*
X5470000D01*
G01Y4306000D02*
X5322000D01*
X5270500Y4254500D01*
Y3495100D01*
X5349600Y3416000D01*
X5470000D01*
G01D02*
X6925600D01*
X6929600Y3420000D01*
X7050000D01*
G01X5470000Y4052000D02*
X5596600D01*
X5651500Y4106900D01*
Y5919000D01*
X5601500Y5969000D01*
X5461000D01*
G01Y4953000D02*
X6223000D01*
G01X6232000Y4052000D02*
X6032500D01*
G01X6223000Y5969000D02*
X6082500D01*
X6032500Y5919000D01*
Y4052000D01*
G01X6223000Y4953000D02*
X7048500D01*
G01D02*
Y4808500D01*
X6998500Y4758500D01*
X6844500D01*
X6794500Y4708500D01*
Y4102000D01*
X6844500Y4052000D01*
X7040000D01*
G01X7802000D02*
X7505000D01*
X7429500Y4127500D01*
Y5919000D01*
X7379500Y5969000D01*
X7048500D01*
G01X9500000Y3500000D02*
X9492500Y3492500D01*
X8114500D01*
X8064500Y3542500D01*
Y4000500D01*
X8013000Y4052000D01*
X7802000D01*
M02*
