G04 ================== begin FILE IDENTIFICATION RECORD ==================*
G04 Layout Name:  C:/Users/user/Desktop/work/OSCILLATOR/allegro/OSCILLATOR1.brd*
G04 Film Name:    soldb*
G04 File Format:  Gerber RS274X*
G04 File Origin:  Cadence Allegro 17.2-P019*
G04 Origin Date:  Thu Aug 01 11:48:18 2019*
G04 *
G04 Layer:  VIA CLASS/SOLDERMASK_BOTTOM*
G04 Layer:  PIN/SOLDERMASK_BOTTOM*
G04 Layer:  PACKAGE GEOMETRY/SOLDERMASK_BOTTOM*
G04 Layer:  BOARD GEOMETRY/SOLDERMASK_BOTTOM*
G04 *
G04 Offset:    (0.000 0.000)*
G04 Mirror:    No*
G04 Mode:      Positive*
G04 Rotation:  0*
G04 FullContactRelief:  No*
G04 UndefLineWidth:     0.000*
G04 ================== end FILE IDENTIFICATION RECORD ====================*
%FSLAX25Y25*MOMM*%
%IR0*IPPOS*OFA0.00000B0.00000*MIA0B0*SFA1.00000B1.00000*%
%ADD13C,2.032*%
%ADD11C,1.118*%
%ADD12C,1.905*%
%ADD10C,3.683*%
%ADD14R,1.905X1.905*%
%LPD*%
G75*
G54D10*
X500000Y500000D03*
Y6500000D03*
X9500000Y500000D03*
Y6500000D03*
G54D11*
X1083200Y1206200D03*
Y1714200D03*
Y2222200D03*
Y2730200D03*
Y3238200D03*
Y3746200D03*
Y4254200D03*
Y4762200D03*
Y5270200D03*
Y5778200D03*
X1591200Y1206200D03*
Y1714200D03*
Y2222200D03*
Y2730200D03*
Y3238200D03*
Y3746200D03*
Y5270200D03*
Y5778200D03*
X2099200Y1206200D03*
X2607200D03*
X2099200Y1714200D03*
X2607200D03*
X2099200Y2222200D03*
Y2730200D03*
X2607200D03*
X2099200Y3238200D03*
X2607200D03*
X2099200Y4254200D03*
Y4762200D03*
X2607200D03*
X2099200Y5270200D03*
X2607200D03*
X2099200Y5778200D03*
X3115200Y1206200D03*
Y1714200D03*
Y2730200D03*
Y3238200D03*
Y3746200D03*
Y4254200D03*
Y5270200D03*
Y5778200D03*
X3623200Y1206200D03*
Y1714200D03*
Y2730200D03*
X4131200D03*
X3623200Y3238200D03*
X4131200D03*
Y4254200D03*
X3623200Y5270200D03*
X4131200D03*
X3623200Y5778200D03*
X4131200D03*
X4639200Y1206200D03*
Y1714200D03*
Y2222200D03*
Y2730200D03*
Y3238200D03*
X5147200Y1206200D03*
X5655200D03*
X5147200Y1714200D03*
X5655200D03*
X5147200Y2222200D03*
X5655200D03*
X5147200Y2730200D03*
X5655200D03*
X5147200Y3238200D03*
X5655200D03*
X5147200Y4254200D03*
Y5270200D03*
Y5778200D03*
X6163200Y2222200D03*
Y2730200D03*
Y3238200D03*
Y4762200D03*
Y5270200D03*
Y5778200D03*
X6671200Y1206200D03*
X7179200D03*
X6671200Y1714200D03*
X7179200D03*
X6671200Y2222200D03*
X7179200D03*
X6671200Y2730200D03*
X7179200D03*
X6671200Y3238200D03*
X7179200D03*
X6671200Y3746200D03*
X7179200D03*
X6671200Y4254200D03*
X7179200D03*
X6671200Y5270200D03*
X7179200D03*
X6671200Y5778200D03*
X7179200D03*
X7687200Y1206200D03*
Y1714200D03*
Y2222200D03*
Y2730200D03*
Y3238200D03*
Y4762200D03*
Y5270200D03*
Y5778200D03*
X8195200Y1206200D03*
X8703200D03*
X8195200Y1714200D03*
X8703200D03*
X8195200Y2222200D03*
X8703200D03*
X8195200Y2730200D03*
X8703200D03*
X8195200Y3238200D03*
X8703200D03*
X8195200Y3746200D03*
X8703200D03*
X8195200Y4254200D03*
X8703200D03*
X8195200Y4762200D03*
X8703200D03*
X8195200Y5270200D03*
X8703200D03*
X8195200Y5778200D03*
X8703200D03*
G54D12*
X500000Y3492000D03*
Y3746000D03*
Y4000000D03*
X1820000Y3798000D03*
Y4052000D03*
Y4306000D03*
X1824000Y5010000D03*
X1570000D03*
X2460000Y1326000D03*
Y1580000D03*
Y2254000D03*
Y2000000D03*
X2312000Y3160000D03*
X2566000Y3414000D03*
X2582000Y3798000D03*
Y4052000D03*
Y4306000D03*
Y4560000D03*
X2820000Y3160000D03*
X3770000Y1584000D03*
Y1838000D03*
Y3798000D03*
Y4052000D03*
Y4306000D03*
X4790000Y1584000D03*
Y1838000D03*
X4532000Y3798000D03*
Y4052000D03*
Y4306000D03*
Y4560000D03*
X4508500Y5778500D03*
Y6032500D03*
X5470000Y3798000D03*
Y4052000D03*
Y4306000D03*
X6180000Y986000D03*
Y1834000D03*
Y1580000D03*
Y1240000D03*
X6232000Y3798000D03*
Y4052000D03*
Y4306000D03*
Y4560000D03*
X7040000Y3798000D03*
Y4052000D03*
Y4306000D03*
X7802000Y3798000D03*
Y4052000D03*
Y4306000D03*
Y4560000D03*
X9500000Y3754000D03*
Y3500000D03*
G54D13*
X1810000Y2140000D03*
Y3156000D03*
X2570000Y5010000D03*
Y6026000D03*
X3170000Y5010000D03*
Y6026000D03*
X3770000Y2410000D03*
Y3426000D03*
X3746500Y5016500D03*
Y6032500D03*
X5470000Y2400000D03*
Y3416000D03*
X5461000Y4953000D03*
Y5969000D03*
X6223000Y4953000D03*
Y5969000D03*
X7050000Y2404000D03*
Y3420000D03*
X7048500Y4953000D03*
Y5969000D03*
G54D14*
X1820000Y4560000D03*
X3770000Y1330000D03*
Y4560000D03*
X4790000Y1330000D03*
X5470000Y4560000D03*
X7040000D03*
M02*
